<?xml version="1.0" encoding="utf-8"?>
<!-- Generator: Adobe Illustrator 21.1.0, SVG Export Plug-In . SVG Version: 6.00 Build 0)  -->
<svg version="1.1" id="Layer_1" xmlns="http://www.w3.org/2000/svg" xmlns:xlink="http://www.w3.org/1999/xlink" x="0px" y="0px"
	 viewBox="0 0 2000 2000" style="enable-background:new 0 0 2000 2000;" xml:space="preserve">
<style type="text/css">
	.st0{fill:#021151;}
</style>
<title>logo_dark</title>
<g>
	<g>
		<circle class="st0" cx="1000" cy="1197.8" r="53.7"/>
	</g>
	<g>
		<path class="st0" d="M1000,1647.8c-248.1,0-450-201.9-450-450V974.6c0-18.5,15-33.5,33.5-33.5h159.6l-0.6-516.6l-125.6,77.3V796
			c0,18.5-15,33.5-33.5,33.5S550,814.5,550,796V498c0-20.7,11-40.4,28.6-51.2l139.2-85.6c18.6-11.4,41.9-11.9,60.9-1.3
			s30.8,30.7,30.8,52.5l0.6,528.8h190c141.5,0,256.6,115.1,256.6,256.6s-115.1,256.6-256.6,256.6s-256.6-115.1-256.6-256.6
			l-0.2-189.7H616.9v189.7c0,211.2,171.8,383.1,383.1,383.1s383.1-171.8,383.1-383.1S1211.2,814.7,1000,814.7h-58.1
			c-18.5,0-33.5-15-33.5-33.5s15-33.5,33.5-33.5h58.1c248.1,0,450,201.9,450,450S1248.1,1647.8,1000,1647.8z M810.1,1008.1
			l0.2,189.7c0,104.6,85.1,189.7,189.7,189.7s189.7-85.1,189.7-189.7s-85.1-189.7-189.7-189.7L810.1,1008.1L810.1,1008.1z"/>
	</g>
</g>
</svg>
